<svg id="Layer_1" data-name="Layer 1" xmlns="http://www.w3.org/2000/svg" xmlns:xlink="http://www.w3.org/1999/xlink" viewBox="0 0 894.5 569.24"><defs><style>.cls-1{fill:none;}.cls-2{fill:#edf6fc;}.cls-3{fill:#1966e6;}.cls-4{fill:#0030a6;}.cls-5{fill:#347edf;}.cls-6{fill:#c6d8f6;}.cls-14,.cls-7{fill:#fff;}.cls-8{fill:#002880;}.cls-9{fill:#9ab749;}.cls-10{clip-path:url(#clip-path);}.cls-11{fill:#a9ca5a;}.cls-12{fill:#fd5b88;}.cls-13{fill:#d1e3fb;}.cls-14{opacity:0.2;}.cls-15{fill:#002847;}.cls-16{fill:#ffbe8e;}.cls-17{fill:#004143;}</style><clipPath id="clip-path"><polygon class="cls-1" points="622.17 262.98 614.41 409.97 358.01 409.97 422.14 345.7 481.72 345.7 544.66 291.83 586.32 324.59 622.17 262.98"/></clipPath></defs><title>Marketeer page</title><ellipse class="cls-2" cx="447.25" cy="539.24" rx="435" ry="30"/><path class="cls-3" d="M749.61,255.75l-15.08,95.11-9,56.58-18.79,118.5c-1.69,10.66-13.09,19.37-25.33,19.35l-98-.22-21-.05a23.41,23.41,0,0,1-5.26-.59,19.94,19.94,0,0,1-7.41-3.3,17.61,17.61,0,0,1-2.16-1.86L543.44,535l-2.8-2.84-1.92-1.94,0,0,2-2.43,1.66-2h0l.69.38c0-.22,0-.44.08-.66l17.12-108.29,13.44-84.92,1.72-10.88.09-.6.74-4.67h0L586,255.5a19.8,19.8,0,0,1,3.26-8h0a25,25,0,0,1,4.8-5.19c.52-.43,1.06-.83,1.61-1.21h0a2,2,0,0,0,.3-.21h0c.11-.07.2-.14.31-.2a27.11,27.11,0,0,1,3.38-1.89c.39-.19.8-.37,1.2-.54a27.67,27.67,0,0,1,6.79-1.87h0a26.06,26.06,0,0,1,3.66-.25l10.38,0h28.65l23.47,0,10,0,11.49,0h.22l28.2,0h4.87l1.89-.93h0l5.52-2.72.15.15h0s0,0,0,.05L745,241.8h0A15.63,15.63,0,0,1,749.61,255.75Z"/><path class="cls-4" d="M667.89,537.78c-.75,0-.87.49-.27,1.1a4,4,0,0,0,2.46,1.12c.75,0,.87-.49.26-1.11A4,4,0,0,0,667.89,537.78Z"/><path class="cls-4" d="M663.62,537.76c-.75,0-.87.5-.26,1.11a4,4,0,0,0,2.45,1.11c.75,0,.87-.49.27-1.1A4,4,0,0,0,663.62,537.76Z"/><path class="cls-4" d="M659.35,537.75c-.75,0-.86.49-.26,1.1a4,4,0,0,0,2.46,1.12c.75,0,.87-.49.26-1.11A4,4,0,0,0,659.35,537.75Z"/><path class="cls-4" d="M655.09,537.74c-.75,0-.87.49-.27,1.1a4,4,0,0,0,2.46,1.12c.75,0,.87-.5.26-1.11A4,4,0,0,0,655.09,537.74Z"/><path class="cls-4" d="M650.82,537.72c-.75,0-.87.49-.26,1.11a4,4,0,0,0,2.45,1.11c.76,0,.87-.49.27-1.1A4,4,0,0,0,650.82,537.72Z"/><path class="cls-4" d="M646.56,537.71c-.76,0-.87.49-.27,1.11a4.07,4.07,0,0,0,2.46,1.11c.75,0,.87-.49.26-1.11A4,4,0,0,0,646.56,537.71Z"/><path class="cls-4" d="M642.29,537.7c-.75,0-.87.49-.26,1.1a4,4,0,0,0,2.45,1.12c.75,0,.87-.5.26-1.11A4,4,0,0,0,642.29,537.7Z"/><path class="cls-4" d="M671.22,541.16c-.75,0-.87.49-.26,1.1a4,4,0,0,0,2.46,1.12c.75,0,.87-.49.26-1.11A4,4,0,0,0,671.22,541.16Z"/><path class="cls-4" d="M667,541.14c-.75,0-.87.5-.27,1.11a4.14,4.14,0,0,0,2.46,1.12c.75,0,.87-.5.26-1.11A4.09,4.09,0,0,0,667,541.14Z"/><path class="cls-4" d="M662.69,541.13c-.75,0-.87.49-.26,1.11a4,4,0,0,0,2.45,1.11c.76,0,.87-.49.27-1.1A4,4,0,0,0,662.69,541.13Z"/><path class="cls-4" d="M658.42,541.12c-.75,0-.86.49-.26,1.11a4.07,4.07,0,0,0,2.46,1.11c.75,0,.87-.49.26-1.11A4,4,0,0,0,658.42,541.12Z"/><path class="cls-4" d="M654.16,541.1c-.75,0-.87.5-.27,1.11a4.14,4.14,0,0,0,2.46,1.12c.75,0,.87-.5.27-1.11A4.14,4.14,0,0,0,654.16,541.1Z"/><path class="cls-4" d="M649.89,541.09c-.75,0-.87.49-.26,1.11a4,4,0,0,0,2.45,1.11c.76,0,.87-.49.27-1.1A4,4,0,0,0,649.89,541.09Z"/><path class="cls-4" d="M645.63,541.08c-.76,0-.87.49-.27,1.1a4,4,0,0,0,2.46,1.12c.75,0,.87-.49.26-1.11A4,4,0,0,0,645.63,541.08Z"/><path class="cls-4" d="M638.2,537.68c-.75,0-.87.5-.27,1.11a4.14,4.14,0,0,0,2.46,1.12c.75,0,.87-.5.26-1.11A4,4,0,0,0,638.2,537.68Z"/><path class="cls-4" d="M641.53,541.06c-.75,0-.87.5-.26,1.11a4.06,4.06,0,0,0,2.46,1.12c.75,0,.87-.5.26-1.11A4.14,4.14,0,0,0,641.53,541.06Z"/><path class="cls-4" d="M634.1,537.67c-.75,0-.86.49-.26,1.11a4,4,0,0,0,2.46,1.11c.75,0,.87-.49.26-1.1A4,4,0,0,0,634.1,537.67Z"/><path class="cls-4" d="M637.44,541.05c-.75,0-.87.49-.26,1.11a4,4,0,0,0,2.45,1.11c.76,0,.87-.49.27-1.1A4,4,0,0,0,637.44,541.05Z"/><path class="cls-4" d="M589.17,537.44c-.75,0-.87.49-.27,1.1a4,4,0,0,0,2.46,1.12c.75,0,.87-.49.26-1.11A4,4,0,0,0,589.17,537.44Z"/><path class="cls-4" d="M584.9,537.42c-.75,0-.87.5-.26,1.11a4.09,4.09,0,0,0,2.46,1.12c.75,0,.86-.5.26-1.11A4.08,4.08,0,0,0,584.9,537.42Z"/><path class="cls-4" d="M580.64,537.41c-.76,0-.88.49-.27,1.11a4.07,4.07,0,0,0,2.46,1.11c.75,0,.87-.49.26-1.1A4,4,0,0,0,580.64,537.41Z"/><path class="cls-4" d="M576.37,537.4c-.75,0-.87.49-.27,1.1a4,4,0,0,0,2.46,1.12c.75,0,.87-.49.26-1.11A4,4,0,0,0,576.37,537.4Z"/><path class="cls-4" d="M572.1,537.38c-.75,0-.87.5-.26,1.11a4.11,4.11,0,0,0,2.45,1.12c.76,0,.87-.5.27-1.11A4.14,4.14,0,0,0,572.1,537.38Z"/><path class="cls-4" d="M567.84,537.37c-.76,0-.87.49-.27,1.11a4.07,4.07,0,0,0,2.46,1.11c.75,0,.87-.49.26-1.1A4,4,0,0,0,567.84,537.37Z"/><path class="cls-4" d="M563.57,537.36c-.75,0-.87.49-.26,1.1a4,4,0,0,0,2.45,1.12c.75,0,.87-.49.27-1.11A4.07,4.07,0,0,0,563.57,537.36Z"/><path class="cls-4" d="M592.5,540.82c-.75,0-.86.49-.26,1.11A4.07,4.07,0,0,0,594.7,543c.75,0,.87-.49.26-1.11A4,4,0,0,0,592.5,540.82Z"/><path class="cls-4" d="M588.24,540.81c-.75,0-.87.49-.26,1.1a4,4,0,0,0,2.45,1.12c.75,0,.87-.5.26-1.11A4,4,0,0,0,588.24,540.81Z"/><path class="cls-4" d="M584,540.79c-.75,0-.87.5-.26,1.11a4.09,4.09,0,0,0,2.46,1.12c.75,0,.86-.5.26-1.11A4.08,4.08,0,0,0,584,540.79Z"/><path class="cls-4" d="M579.71,540.78c-.76,0-.87.49-.27,1.11A4.07,4.07,0,0,0,581.9,543c.75,0,.87-.49.26-1.11A4,4,0,0,0,579.71,540.78Z"/><path class="cls-4" d="M575.44,540.77c-.75,0-.87.49-.26,1.1a4,4,0,0,0,2.45,1.12c.75,0,.87-.49.27-1.11A4.07,4.07,0,0,0,575.44,540.77Z"/><path class="cls-4" d="M571.17,540.75c-.75,0-.87.49-.26,1.11a4,4,0,0,0,2.46,1.11c.75,0,.86-.49.26-1.1A4,4,0,0,0,571.17,540.75Z"/><path class="cls-4" d="M566.91,540.74c-.76,0-.87.49-.27,1.1A4,4,0,0,0,569.1,543c.75,0,.87-.49.26-1.11A4,4,0,0,0,566.91,540.74Z"/><path class="cls-4" d="M559.48,537.34c-.75,0-.87.5-.27,1.11a4.14,4.14,0,0,0,2.46,1.12c.75,0,.87-.5.26-1.11A4.09,4.09,0,0,0,559.48,537.34Z"/><path class="cls-4" d="M562.82,540.73c-.76,0-.88.49-.27,1.1A4,4,0,0,0,565,543c.75,0,.86-.5.26-1.11A4,4,0,0,0,562.82,540.73Z"/><path class="cls-4" d="M555.38,537.33c-.75,0-.86.49-.26,1.11a4.07,4.07,0,0,0,2.46,1.11c.75,0,.87-.49.26-1.1A4,4,0,0,0,555.38,537.33Z"/><path class="cls-4" d="M558.72,540.71c-.75,0-.87.5-.26,1.11a4.09,4.09,0,0,0,2.45,1.12c.76,0,.87-.5.27-1.11A4.08,4.08,0,0,0,558.72,540.71Z"/><path class="cls-5" d="M740,246,721.11,364.87l-4.55,28.71L697.13,516.16c-1.7,10.67-13.1,19.38-25.34,19.35L614,535.39l-29.4-.08h0l-28.25-.06h-3.48c-.55,0-1.09,0-1.62-.07a22.39,22.39,0,0,1-6.32-1.32,18.54,18.54,0,0,1-4.21-2.15,17.36,17.36,0,0,1-1.91-1.48h0a15.59,15.59,0,0,1-1.74-1.81l-.52-.65c-.3-.41-.59-.84-.85-1.27l-.06-.1c-.14-.23-.27-.47-.4-.72s-.25-.49-.37-.73-.2-.45-.29-.69l0-.08c-.09-.23-.18-.47-.26-.71,0,0,0,0,0-.06l-.24-.79a16.25,16.25,0,0,1-.36-6.84l5.12-32.35,3.7-23.38,4.34-27.43,8.55-54,8.26-52.22,1.16-7.33,2.34-14.79,1.79-11.34,7.46-47.2c1.69-10.68,13.09-19.4,25.34-19.38l13.31,0,42.08.07,17.58,0,9.08,0,22.82,0,14.25,0h1c.17,0,.35,0,.52,0l.51,0c.33,0,.67.06,1,.11s.41.05.62.09l.36.06.16,0a4.71,4.71,0,0,1,.52.09l.28.06.64.15.29.07.61.17h0l.84.26c.25.09.51.18.75.29l.14.05.72.29,0,0,.78.36a17.74,17.74,0,0,1,5.31,3.93l.15.15h0s0,0,0,.05A15.63,15.63,0,0,1,740,246Z"/><path class="cls-2" d="M733.49,243.76l-.6,3.74-20,126.09L700.5,451.91l-6.61,41.67-3.24,20.36a16.82,16.82,0,0,1-6.28,10,22.38,22.38,0,0,1-13.86,5.13L613.45,529h-5.37l-6.39,0h-10.5l-11.3,0-12.13,0-16.27,0a16.28,16.28,0,0,1-1.73-.09,12,12,0,0,1-7.78-3.43,8.72,8.72,0,0,1-1.9-7.33l7.64-48.36,21.33-134.74h0l11.27-71.27h0l2.49-15.66a3.39,3.39,0,0,1,.08-.44c.84-4.34,4-8.36,8.23-11.09A22.14,22.14,0,0,1,603,232.75h6.07l4,0h9.14l73.56.11h13.46l12.87,0a18,18,0,0,1,2.8.23A12.64,12.64,0,0,1,730,235.1a9.26,9.26,0,0,1,1.56,1.33A8.65,8.65,0,0,1,733.49,243.76Z"/><path class="cls-6" d="M621.63,246.05a4.21,4.21,0,0,1-.93-3.59l1.53-9.68h-9.14l-10.09,0a22.05,22.05,0,0,0-11.88,3.66c-4.23,2.73-7.39,6.75-8.23,11.09h41.25A5.19,5.19,0,0,1,621.63,246.05Z"/><path class="cls-7" d="M596.2,238.25l-.17.95-.38,1.89h0l-.39,2-.19,1h13.8l.84-4.3.3-1.54Zm.07,2.43.37-1.89h12.73l-.72,3.7-.21,1.06H595.7Z"/><polygon class="cls-7" points="599.52 243.82 608.66 243.82 609.69 238.51 600.56 238.51 599.52 243.82"/><polygon class="cls-7" points="593.88 243.13 595.52 243.13 596.29 239.2 594.65 239.2 593.88 243.13"/><polygon class="cls-7" points="726.7 243.54 728.53 243.54 729.09 240.69 727.25 240.69 726.7 243.54"/><polygon class="cls-7" points="722.83 243.54 724.66 243.54 725.49 239.31 723.65 239.31 722.83 243.54"/><polygon class="cls-7" points="719.05 243.54 720.89 243.54 722.05 237.57 720.21 237.57 719.05 243.54"/><path class="cls-7" d="M704.08,242.83a.43.43,0,0,0,.28-.11,2.94,2.94,0,0,1,1.94-.86,2.13,2.13,0,0,1,1.54.84.35.35,0,0,0,.5,0,.41.41,0,0,0,.14-.51,2.7,2.7,0,0,0-2-1.08,3.74,3.74,0,0,0-2.51,1.07.37.37,0,0,0-.1.5A.3.3,0,0,0,704.08,242.83Z"/><path class="cls-7" d="M703.32,241.32a.43.43,0,0,0,.27-.11,4.79,4.79,0,0,1,3.06-1.34h0a3.79,3.79,0,0,1,2.74,1.34.36.36,0,0,0,.51,0,.38.38,0,0,0,.1-.51,4.27,4.27,0,0,0-3.21-1.55h0a5.62,5.62,0,0,0-3.61,1.55.38.38,0,0,0-.1.51A.35.35,0,0,0,703.32,241.32Z"/><path class="cls-7" d="M711.31,239.87a.41.41,0,0,0,.26-.1.38.38,0,0,0,.12-.5,6.05,6.05,0,0,0-4.58-2.34H707a8.37,8.37,0,0,0-5.35,2.33.37.37,0,0,0-.09.5.36.36,0,0,0,.51,0,7.37,7.37,0,0,1,4.87-2.12,5.6,5.6,0,0,1,4.1,2.11A.27.27,0,0,0,711.31,239.87Z"/><path class="cls-7" d="M705,243.77a.69.69,0,0,0,.69.86,1.08,1.08,0,0,0,1-.86.68.68,0,0,0-.69-.85A1.09,1.09,0,0,0,705,243.77Z"/><path class="cls-8" d="M630.84,235.11c-2.5,1.92-3.23,4.8-1.62,6.42s4.94,1.4,7.44-.52,3.24-4.79,1.63-6.42S633.35,233.2,630.84,235.11Z"/><path class="cls-4" d="M631.64,235.92c-1.91,1.45-2.53,3.57-1.39,4.72s3.6.91,5.5-.55,2.53-3.58,1.4-4.73S633.54,234.46,631.64,235.92Z"/><path class="cls-8" d="M682.09,234.93a1.3,1.3,0,0,0-.22,0h-.1l0,0-34,0-.16,0a4.89,4.89,0,0,0-2.77,1c-1.57,1.2-2.09,3-1.13,3.94a2.22,2.22,0,0,0,1.07.54l.36.07H646l33.16.14.14,0a4.75,4.75,0,0,0,3-1.05,3.76,3.76,0,0,0,1.62-2.68,1.75,1.75,0,0,0-.53-1.32A2.28,2.28,0,0,0,682.09,234.93Z"/><path class="cls-4" d="M650.36,236.8a4.82,4.82,0,0,0-2.78,1,3.73,3.73,0,0,0-1.6,2.6l33.16.14.14,0a4.75,4.75,0,0,0,3-1.05,3.76,3.76,0,0,0,1.62-2.68l-33.35,0Z"/><path class="cls-8" d="M631.4,237.43c-.78.6-1,1.46-.57,1.93a1.82,1.82,0,0,0,2.25-.23c.77-.59,1-1.45.57-1.92A1.83,1.83,0,0,0,631.4,237.43Z"/><path class="cls-8" d="M634.57,236.5c-.43.33-.57.81-.31,1.07a1,1,0,0,0,1.25-.12c.44-.33.58-.82.32-1.08A1,1,0,0,0,634.57,236.5Z"/><path class="cls-4" d="M624,538.3a1,1,0,0,0-.76-.38H603.85c-.64,0-.88.7-.43,1.24l2.6,3.09a1,1,0,0,0,.77.38H626.2c.64,0,.88-.7.43-1.24Z"/><polygon class="cls-2" points="660.75 156.04 660.71 156.82 659.91 171.99 647.75 404.18 647.71 404.79 647.71 404.8 381.85 404.16 392.21 206.47 392.72 196.85 660.75 156.04 660.75 156.04"/><polygon class="cls-4" points="660.75 156.04 659.91 171.99 415.64 203.45 400.35 205.42 392.21 206.47 392.71 196.84 416.18 193.28 660.75 156.04"/><path class="cls-7" d="M648.09,163.34l4.32,4.47a.53.53,0,0,1-.1.72.51.51,0,0,1-.71.08l-4.33-4.47a.53.53,0,0,1,.11-.72A.5.5,0,0,1,648.09,163.34Z"/><path class="cls-7" d="M652.42,162.82a.5.5,0,0,1,.71-.08.53.53,0,0,1-.1.71l-5.76,5.68a.45.45,0,1,1-.61-.63Z"/><path class="cls-7" d="M640.41,163.74a4.71,4.71,0,0,0-3.88,3.83,2.5,2.5,0,0,0,2.92,3,4.71,4.71,0,0,0,3.88-3.82A2.51,2.51,0,0,0,640.41,163.74Zm2.16,3.11a3.66,3.66,0,0,1-3,3,1.94,1.94,0,0,1-2.25-2.33,3.64,3.64,0,0,1,3-3A2,2,0,0,1,642.57,166.85Z"/><path class="cls-7" d="M626.61,170.83l6.15-.74a.29.29,0,0,1,.33.35.54.54,0,0,1-.44.43l-6.15.74a.29.29,0,0,1-.33-.34A.54.54,0,0,1,626.61,170.83Z"/><polygon class="cls-6" points="647.71 404.79 655.41 404.2 668.44 155.64 660.75 156.05 647.71 404.79"/><polygon class="cls-8" points="659.91 171.99 667.6 171.57 668.44 155.64 660.75 156.05 659.91 171.99"/><polygon class="cls-9" points="636.06 325.23 635.03 344.77 619.52 360.75 603.4 341.86 541.66 372.92 479.78 372.92 393.12 409.97 631.59 409.97 649.52 409.97 649.56 409.97 654 325.23 636.06 325.23"/><polygon class="cls-4" points="622.17 262.98 617.86 344.77 614.41 409.97 358.01 409.97 422.14 345.7 481.72 345.7 544.66 291.83 586.32 324.59 622.17 262.98"/><g class="cls-10"><rect class="cls-7" x="506.48" y="327.71" width="72.57" height="0.71" transform="matrix(0.05, -1, 1, 0.05, 186.62, 852.83)"/><rect class="cls-7" x="491.09" y="340.02" width="72.57" height="0.71" transform="translate(160.33 849.54) rotate(-87.05)"/><rect class="cls-7" x="476.35" y="340.02" width="72.57" height="0.71" transform="translate(146.37 834.84) rotate(-87.06)"/><rect class="cls-7" x="461.61" y="340.02" width="72.57" height="0.71" transform="translate(132.33 820.08) rotate(-87.05)"/><rect class="cls-7" x="446.86" y="340.02" width="72.57" height="0.71" transform="translate(118.4 805.4) rotate(-87.06)"/><rect class="cls-7" x="432.12" y="340.02" width="72.57" height="0.71" transform="translate(104.39 790.65) rotate(-87.05)"/><rect class="cls-7" x="417.19" y="343.64" width="72.57" height="0.71" transform="translate(86.07 778.71) rotate(-86.98)"/><rect class="cls-7" x="401.93" y="353.47" width="72.57" height="0.71" transform="translate(61.84 772.84) rotate(-86.99)"/><rect class="cls-7" x="387.02" y="356.77" width="72.57" height="0.71" transform="matrix(0.05, -1, 1, 0.05, 44.42, 761.07)"/><rect class="cls-7" x="371.48" y="371.98" width="72.57" height="0.71" transform="translate(14.93 760.38) rotate(-87.05)"/><rect class="cls-7" x="356.14" y="383.43" width="72.57" height="0.71" transform="translate(-11.42 755.54) rotate(-86.99)"/><rect class="cls-7" x="341.12" y="388.58" width="72.57" height="0.71" transform="translate(-30.83 745.38) rotate(-86.99)"/><rect class="cls-7" x="326.49" y="386.49" width="72.57" height="0.71" transform="translate(-42.63 728.74) rotate(-86.98)"/><rect class="cls-7" x="521.17" y="327.71" width="72.57" height="0.71" transform="translate(200.54 867.5) rotate(-86.99)"/><rect class="cls-7" x="534.05" y="327.71" width="72.57" height="0.71" transform="translate(212.74 880.36) rotate(-86.99)"/><rect class="cls-7" x="546.93" y="327.71" width="72.57" height="0.71" transform="translate(224.94 893.22) rotate(-86.99)"/><rect class="cls-7" x="559.81" y="327.71" width="72.57" height="0.71" transform="translate(237.22 906.13) rotate(-86.99)"/><rect class="cls-7" x="573.4" y="314.09" width="72.57" height="0.71" transform="translate(263.6 906.74) rotate(-86.98)"/></g><polygon class="cls-11" points="619.52 360.75 603.4 341.86 603.39 341.86 585.46 341.86 586.13 350.55 541.66 372.92 479.78 372.92 393.12 409.97 631.59 409.97 635.03 344.77 619.52 360.75"/><polygon class="cls-11" points="601.58 360.75 585.46 341.86 523.73 372.92 461.84 372.92 375.19 409.97 631.59 409.97 636.06 325.23 601.58 360.75"/><path class="cls-3" d="M645.74,212l-.57,1.44-44.79,8.81L612.55,237l2.73,3.31.05.06L612,243.11l-.07,0-2-1-28.75,25.24-4.33,3.8a7,7,0,0,0-3.05-.69,6.74,6.74,0,0,0-1.27.11,7.51,7.51,0,0,0-2.17.73,8,8,0,0,0-.7.41L568,270.46l-17.44-12.4a6.79,6.79,0,0,0-6.85-7.11h-5.85l-.08,1.55H536l-22.55,44.88-.22.43a7.68,7.68,0,0,0-3.67,6.1c0,.12,0,.24,0,.36l-6.39,2.35L485.88,313a6.89,6.89,0,0,0-2.38-1.62,7,7,0,0,0-2.64-.51h-6.79l-.25,4.75a7.61,7.61,0,0,0-.57,2.48,7.2,7.2,0,0,0,.31,2.47l-.11,2.15H470l-1,1.15-23.32,27.89a7.06,7.06,0,0,0-1.66-.31H437l-17.53-16.54a7.53,7.53,0,0,0,.75-2.88,6.79,6.79,0,0,0-6.41-7.21v0h-7.23l-.25,4.75a7.36,7.36,0,0,0-.57,2.48,7.26,7.26,0,0,0,.31,2.48l0,.89-1.56,1.7-.8-.2-2.21-.54-.66.75L375.33,366l-.23,0v0h-7.23l-.25,4.75a7.61,7.61,0,0,0-.57,2.48,8.07,8.07,0,0,0,0,1.21l-5.76,2.89-27.78,13.94c.35.37.67.68.94.94.59.58.94.88.94.88h4.09l25.69-12.89,2-1-.07,1.25h7.23a7.72,7.72,0,0,0,7.17-7.22,6.83,6.83,0,0,0-.86-3.77l27.61-30.16H413a7.48,7.48,0,0,0,2-.41c4.32,4.08,13.05,12.18,16.21,15.1L432.4,355l1-.52.14-.07,2.73,2.58c0,.06,0,.11,0,.16a7.45,7.45,0,0,0-.24,1.5,7.31,7.31,0,0,0,.31,2.49l-.25,4.74h7.23v0a7.71,7.71,0,0,0,7.17-7.21,7,7,0,0,0-.42-2.81l27.21-30.53h2.85a7.71,7.71,0,0,0,7.61-7.23,7.3,7.3,0,0,0,0-1.15L506,310.17l2.72-1,1.15-.42-.3,2.4h6.79a7.72,7.72,0,0,0,7.61-7.23,6.81,6.81,0,0,0-1.91-5.17h0l18.45-33.33H543a7.66,7.66,0,0,0,6-3L562.39,272l4.39,3.12a7.49,7.49,0,0,0-.58,2.5,7,7,0,0,0,.19,2.06,6.75,6.75,0,0,0,.29.9,6.88,6.88,0,0,0,1.21,2l-1.33,2.29h6.49a7.71,7.71,0,0,0,7.61-7.23,7.09,7.09,0,0,0-.28-2.41l5.47-4.58L614,247l4-3.37,10.34,12.55-2.19,5.59H633L652.53,212Z"/><path class="cls-3" d="M524,303.91a7.72,7.72,0,0,1-7.61,7.23h-6.79l.3-2.4-1.15.42,0-2.39,6.59-8h6.79A6.81,6.81,0,0,1,524,303.91Z"/><polygon class="cls-3" points="567.02 270.4 573.81 270.4 573.38 278.54 566.79 278.54 567.02 270.4"/><path class="cls-3" d="M580.66,277.63a7.71,7.71,0,0,1-7.61,7.23h-6.5l1.34-2.3a6.88,6.88,0,0,1-1.21-2l6.91-5.37h6.79A7.09,7.09,0,0,1,580.66,277.63Z"/><path class="cls-5" d="M617.31,238.58l-2,1.71L612,243.07l-.69.58-29,24.3-8.68,7.27h0l-6.19,5.18-.26-.19-.75-.53L560,275.13l-17.81-12.68L537.3,259l-22,39.76h0l-3.84,6.93-2.64,1-4.75,1.75-23.17,8.53-4.4,1.62-3,3.36-.71.79-1.93,2.17h0l-27.6,31-6.84,7.68-.22-.2-6.7-6.33-18.83-17.77-1.09-1L406,334.83l-.28-.27-2.11,2.3-1.32,1.45-28.44,31.06-5.06,5.53-.39.2-6.3,3.15-27.62,13.87c-.27-.26-.59-.57-.94-.94-.61-.63-1.33-1.42-2.11-2.35l28.86-14.48,5.91-3,1.46-1.59,3-3.29.53-.59,28.24-30.84,6.21-6.78.66.62,6.32,6h0L432,353.16l1.39,1.31,2.83,2.67.05.05,4.23-4.73.92-1,26.07-29.26,6.34-7.11.2-.22,5-1.86,4.41-1.62,19.23-7.08,5.75-2.11,3-5.39L536,252.5l26.91,19.15,4.48,3.2,3.75-3.14,1.43-1.2,5.7-4.78,30.29-25.38,4-3.37,2-1.71Z"/><polygon class="cls-5" points="626.2 261.79 645.74 211.97 593.59 222.22 626.2 261.79"/><path class="cls-5" d="M374.72,373.14a7.71,7.71,0,0,1-7.61,7.23,6.79,6.79,0,0,1-6.85-7.23,7.71,7.71,0,0,1,7.61-7.23A6.79,6.79,0,0,1,374.72,373.14Z"/><path class="cls-5" d="M413.39,332a7.71,7.71,0,0,1-7.61,7.23,6.79,6.79,0,0,1-6.85-7.23,7.71,7.71,0,0,1,7.61-7.23A6.79,6.79,0,0,1,413.39,332Z"/><path class="cls-5" d="M443.67,358.64a7.71,7.71,0,0,1-7.61,7.23,6.79,6.79,0,0,1-6.85-7.23,7.71,7.71,0,0,1,7.61-7.23A6.79,6.79,0,0,1,443.67,358.64Z"/><path class="cls-5" d="M480.92,318.07a7.71,7.71,0,0,1-7.61,7.23,6.79,6.79,0,0,1-6.85-7.23,7.71,7.71,0,0,1,7.61-7.23A6.79,6.79,0,0,1,480.92,318.07Z"/><path class="cls-5" d="M517.2,303.91a7.71,7.71,0,0,1-7.61,7.23,6.79,6.79,0,0,1-6.85-7.23,7.71,7.71,0,0,1,7.61-7.23A6.79,6.79,0,0,1,517.2,303.91Z"/><path class="cls-5" d="M573.87,277.63a7.71,7.71,0,0,1-7.61,7.23,6.79,6.79,0,0,1-6.85-7.23A7.71,7.71,0,0,1,567,270.4,6.79,6.79,0,0,1,573.87,277.63Z"/><path class="cls-5" d="M544.71,258.18a7.71,7.71,0,0,1-7.61,7.23,6.79,6.79,0,0,1-6.85-7.23,7.71,7.71,0,0,1,7.61-7.23A6.79,6.79,0,0,1,544.71,258.18Z"/><polygon class="cls-1" points="392.72 196.85 381.85 404.16 405.13 404.22 444.28 404.31 491.65 404.43 588.23 404.66 615.55 404.72 647.71 404.79 660.75 156.05 416.18 193.28 392.72 196.85"/><path class="cls-6" d="M498.94,250.33a35,35,0,0,0-10.28-19.89c-11.64-11.13-29.45-12.38-45-4.64a51.36,51.36,0,0,0-13.63,9.88c-.36.36-.72.71-1.06,1.08-17.31,18.38-18.74,45.4-3.17,60.33s42.3,12.14,59.64-6.25a52.28,52.28,0,0,0,8.6-12.15A45.66,45.66,0,0,0,498.94,250.33ZM456.12,285.2c-11.68,1.22-20.65-7.36-20-19.18a25.27,25.27,0,0,1,7.52-16.34,25.64,25.64,0,0,1,6.84-5,23.19,23.19,0,0,1,7.91-2.35c10.14-1.07,18.24,5.24,19.81,14.67a21.54,21.54,0,0,1,.25,4.52,23.78,23.78,0,0,1-2.69,9.7C471.92,278.7,464.45,284.32,456.12,285.2Z"/><path class="cls-4" d="M436.39,225.8l6.74,18.92a23.19,23.19,0,0,1,7.91-2.35c10.14-1.07,18.24,5.24,19.81,14.67l20.77-6.71a35,35,0,0,0-10.28-19.89C469.7,219.31,451.89,218.06,436.39,225.8Z"/><path class="cls-11" d="M448.8,285.2c-11.68,1.22-20.65-7.36-20-19.18a25.32,25.32,0,0,1,7.52-16.34l-13.53-14c-.36.36-.72.71-1.06,1.08-17.31,18.38-18.74,45.4-3.17,60.33s42.3,12.14,59.64-6.25a52.28,52.28,0,0,0,8.6-12.15l-18.36-7.43C464.6,278.7,457.13,284.32,448.8,285.2Z"/><path class="cls-7" d="M422.76,235.68l13.53,14a25.64,25.64,0,0,1,6.84-5l-6.74-18.92A51.36,51.36,0,0,0,422.76,235.68Z"/><path class="cls-5" d="M470.85,257a21.54,21.54,0,0,1,.25,4.52,23.78,23.78,0,0,1-2.69,9.7l18.36,7.43a45.66,45.66,0,0,0,4.85-28.36Z"/><polygon class="cls-4" points="429.52 477.42 388.21 477.77 422.17 484.62 429.52 477.42"/><path class="cls-4" d="M403.58,453.31a22.67,22.67,0,0,0-3.34-.32c-7.72-.2-10.87,7-7.34,13.82,3.1,6,1.3,12.67.82,14.21l-4.05-.1s3.86-5.49,1.86-10.75-6.34-14.74.4-17.69A11.87,11.87,0,0,1,403.58,453.31Z"/><path class="cls-8" d="M399.55,452.17a21.35,21.35,0,0,0-3.34-.33c-7.72-.19-10.87,7-7.34,13.83,3.1,6,1.3,12.67.82,14.2l-4.05-.09s3.86-5.5,1.86-10.76-6.34-14.74.4-17.69A11.86,11.86,0,0,1,399.55,452.17Z"/><path class="cls-8" d="M406.91,461.72c-.07,6.69-5.56,12-2.66,20.09l-16-2.18.11-.32,12.29.28s-2.63-6.15,1.94-13.52-4.37-14.47-4.37-14.47C403.83,452.64,407,456.07,406.91,461.72Z"/><path class="cls-4" d="M410.94,462.86c-.07,6.69-5.56,12-2.66,20.1l-16-2.19.11-.32,12.29.28s-2.63-6.15,1.94-13.52-4.37-14.46-4.37-14.46C407.86,453.79,411,457.21,410.94,462.86Z"/><polygon class="cls-3" points="419.19 477.5 418.72 542.71 366.08 543.15 366.74 533.17 370.4 477.92 419.19 477.5"/><polygon class="cls-3" points="424.94 479.06 429.52 477.42 434.61 542.57 428.66 542.62 424.94 479.06"/><polygon class="cls-5" points="419.17 477.5 424.94 479.06 428.66 542.62 418.71 542.71 419.17 477.5"/><polygon class="cls-3" points="317.22 467.55 367.06 467.97 326.09 476.24 317.22 467.55"/><path class="cls-3" d="M348.52,438.47a26.23,26.23,0,0,1,4-.39c9.31-.23,13.12,8.49,8.86,16.68-3.75,7.2-1.57,15.29-1,17.14l4.88-.11s-4.65-6.64-2.24-13,7.65-17.78-.48-21.35A14.35,14.35,0,0,0,348.52,438.47Z"/><path class="cls-5" d="M353.38,437.09a26.36,26.36,0,0,1,4-.39c9.31-.23,13.12,8.49,8.86,16.68-3.74,7.2-1.57,15.29-1,17.14l4.88-.11s-4.65-6.64-2.24-13,7.65-17.79-.48-21.35A14.35,14.35,0,0,0,353.38,437.09Z"/><path class="cls-5" d="M344.51,448.62c.08,8.07,6.7,14.49,3.21,24.23L367,470.23s-.05-.14-.13-.4l-14.83.35s3.17-7.43-2.34-16.32S355,436.41,355,436.41C348.22,437.66,344.43,441.79,344.51,448.62Z"/><path class="cls-3" d="M339.64,450c.09,8.07,6.71,14.49,3.21,24.23l19.33-2.62s-.05-.14-.13-.4l-14.83.34s3.17-7.42-2.34-16.31,5.27-17.45,5.27-17.45C343.35,439,339.57,443.17,339.64,450Z"/><polygon class="cls-4" points="329.69 467.66 330.25 546.32 393.76 546.86 392.97 534.82 388.56 468.16 329.69 467.66"/><polygon class="cls-4" points="322.76 469.54 317.22 467.55 311.08 546.16 318.27 546.22 322.76 469.54"/><polygon class="cls-8" points="329.71 467.66 322.76 469.54 318.27 546.22 330.27 546.32 329.71 467.66"/><path class="cls-7" d="M557.07,326.7c-.2-.48-.55-.95.13-1.12.42-.16,1.46,1.53,1.46,2-.3,1.08-.93.9-1.07,1.95A9.62,9.62,0,0,0,557.07,326.7Z"/><path class="cls-7" d="M557.47,330.3a24.31,24.31,0,0,1,.68-3.24c.35-1.28,1.45-4.05,1.53-4.24a15.91,15.91,0,0,1,1-2.37,2.51,2.51,0,0,1,1.38-.59.75.75,0,0,1,.62.58c.65-.07.52,1.55.68,1.5.62-.22,1.11.57.2,2.71-.05.13-1.25,5.85-1.78,7.65A23.92,23.92,0,0,1,557.47,330.3Z"/><path class="cls-12" d="M542.46,360a3.46,3.46,0,0,1,.23-1c2.15-5.22,13.46-23.16,14.83-29a18.53,18.53,0,0,0,4.48,1.61c-2.45,9.49-11.21,32.42-15.13,32.55C543.29,364.24,542.35,361.73,542.46,360Z"/><path class="cls-12" d="M514.08,369.82c4.37-2.86,20.38-8.1,27.57-12.08,8.81-4.88,9.06,3,6.87,5.35-5.77,6.16-24.53,20.31-28,17.65C519,379.59,513.29,370.33,514.08,369.82Z"/><path class="cls-3" d="M512.83,369.91a1.36,1.36,0,0,1,.61-1.08c2.28-1.49,7.44-3.55,12.91-5.72s15.93-7,16.5-7.27c1.12-2.16,12.72-22.8,13.52-26.16l6.77,2.19c-2.16,8.35-9.22,27.35-13.81,32.09-4.73,5-24.79,21.34-29.55,17.72C518.18,380.47,512.7,371.89,512.83,369.91Z"/><path class="cls-11" d="M486,536.1l3.86-1.69s.67,1.26,1.24,2.08c1.09,1.59,6.92,3.23,6.71,5.3-.1,1.05-2.4,1.78-4.21,1.68a12.6,12.6,0,0,1-4.28-1c-1-.45-3.36-1.68-3.68-2.36a3,3,0,0,1,.1-2.44C485.65,536.47,486,536.1,486,536.1Z"/><path class="cls-7" d="M490.92,534.4a1.79,1.79,0,0,0,.17,2.09s-.07.78-1.53,1.41c-.83.35-3.83-.25-3.83-.25a16,16,0,0,1,.18-2.85Z"/><path class="cls-8" d="M511.88,415.64c.11,2.56-1.29,37.36-7,68.58a320.9,320.9,0,0,1-14.12,51c-.07.19-3.83,1.78-5.42-.37,0,0,5.43-26.42,4.29-52-1-22-3.21-43.07-4.8-44.6l2.25-23C495.89,416.69,508.83,416.64,511.88,415.64Z"/><path class="cls-11" d="M409.62,506.07l4.15.75s-.14,1.42-.13,2.42c0,1.93,4,6.53,2.63,8.14-.67.82-3,.14-4.43-1a8.69,8.69,0,0,1-3-3.23c-.48-1.32-1.85-3.26-1.74-4a3,3,0,0,1,1.43-2C409.14,506.19,409.62,506.07,409.62,506.07Z"/><path class="cls-7" d="M414.5,507.14a2.61,2.61,0,0,0-.86,2.1s-.37,1-1.94.69c-.88-.17-3.16-2.71-3.16-2.71.6-1,1.65-2.44,1.65-2.44Z"/><path class="cls-4" d="M478.65,406.44c6.49,6.08,23.26,23.4,26.35,24.27-1.34,2.19-28.85,20.13-51,43A317.13,317.13,0,0,1,414.11,508c-.16.12-4.16-.64-4.3-3.32,0,0,20.47-18.22,32.46-40.79C451,447.44,456.32,436.27,478.65,406.44Z"/><path class="cls-7" d="M519.38,352.46c-.13.49-2.52,5.44-2,8.51-1.09,2.49-8.33.86-9.31-4,1.12-1.07,3.33-7.61,3.53-10.09C512.09,347.44,517.54,352.32,519.38,352.46Z"/><path class="cls-7" d="M512.35,339.1c2.9-1.73,6.15-2.5,8.25,0,.75.89,5,10.27.78,14.13-1.77,1.63-7.53.11-8.92-2.21l-1.9-3.2C508.72,344.74,509.24,341,512.35,339.1Z"/><path class="cls-5" d="M524.18,379.34a.14.14,0,0,0,0,.07c-.19.74-.84,2.65-1.75,5.47-3.06,9.47-9,29.21-9.7,49.13-5,4.63-23.93,7-38.79-3l3-17.89-6.81,16.56c-1-.36-3.21-.78-4-1,4.73-48.45,17-68.66,34.21-71.45,1.93-.32,7.79-.29,7.79-.29s3.12,4.27,5.64,5c1.75.53,3.67-1,3.67-1s5.91,3.38,6.91,4.31C528.16,368.89,525.36,374.41,524.18,379.34Z"/><path class="cls-3" d="M508.06,357s3.12,4.27,5.65,5c1.73.53,3.66-1,3.66-1s5.53,3.15,6.79,4.2c-1.56,5.11-8.69,9.22-8.69,9.22s-8.8-12-15.19-17.16a17.28,17.28,0,0,1,3.84-.38Z"/><path class="cls-6" d="M503,338c2.73-8.59,15.84-9.75,19.68-3.71.85,1.33,1.5,5.4-12.91,10.15-.26,3.11,2,8.37,2,8.37C506,351.61,501,344.52,503,338Z"/><path class="cls-7" d="M509.35,346.83a3.14,3.14,0,0,1,1.47-.6,43.2,43.2,0,0,1,1.54,4.14,3.23,3.23,0,0,1-3.06-.7A2.31,2.31,0,0,1,509.35,346.83Z"/><path class="cls-3" d="M524.16,379.41c-.19.74-.84,2.65-1.75,5.47-.51.12-1,.23-1.62.32-10.19,1.61-20.26-.47-26.32-6-4.65-4.23,1.92-11.86,4.66-9.14C504.66,375.6,516.59,378.24,524.16,379.41Z"/><path class="cls-7" d="M557.22,357.58c.42.17.08,2.12-.21,2.46-.94.61-1.29,0-2.09.75a9.47,9.47,0,0,0,1.46-2.45C556.55,357.85,556.59,357.27,557.22,357.58Z"/><path class="cls-7" d="M557,359.33c1.11-.73,3.76-2.08,3.95-2.17a16.54,16.54,0,0,1,2.34-1.09,2.52,2.52,0,0,1,1.43.47.75.75,0,0,1,.08.85c.54.37-.63,1.5-.48,1.56.61.25.46,1.17-1.65,2.18-.12.06-4.8,3.55-6.39,4.55a24,24,0,0,1-1.93-4.37A23.42,23.42,0,0,1,557,359.33Z"/><path class="cls-5" d="M494.62,361.47a1.38,1.38,0,0,1,1.17-.41c2.7.39,7.93,2.27,13.47,4.26a148.66,148.66,0,0,0,15.27,4.94,16.54,16.54,0,0,1,1.91.53c2.27-.88,5.36-2,8.62-3.1,7.13-2.49,16-5.58,18.82-7.57l3.63,6.12c-7.14,4.83-25,14.4-31.6,14.92-6.84.63-32.7-.4-33.87-6.27C491.65,372.93,493.21,362.86,494.62,361.47Z"/><path class="cls-9" d="M750.76,541.46a3.47,3.47,0,0,0,3.06,3.82c2.09.12,4.06-.91,4.41-2.3l25.24-82.6-22.07-1.26Z"/><path class="cls-11" d="M803.76,399l-30.47-2.34-7.17,79.61,30.52,2.34c19.09,1.46,36.16-15.19,38.11-37.18S822.84,400.5,803.76,399Z"/><path class="cls-4" d="M774.28,396.74a8.85,8.85,0,0,0-1,0v0l-109-45L650.67,504.1l115.44-27.79v0l.27.05c11.38,1,22.36-16,24.54-38S785.65,397.75,774.28,396.74Z"/><path class="cls-8" d="M660.2,350.89c-20.77-1.83-41.1,31.13-45.35,73.63s9.06,78.33,29.83,80.19c12.17,1.05,24.2-9.83,32.91-27.58A126.23,126.23,0,0,0,687.43,448a157.46,157.46,0,0,0,2.63-17,155.28,155.28,0,0,0,.77-17,119.21,119.21,0,0,0-5-34.62C680.52,362.82,671.46,351.86,660.2,350.89Z"/><path class="cls-6" d="M669.62,366.62c-16.57-1.46-32.79,24.82-36.2,58.71s7.23,62.5,23.8,64c7.19.62,14.32-4,20.37-12.16A126.23,126.23,0,0,0,687.43,448a157.46,157.46,0,0,0,2.63-17,155.28,155.28,0,0,0,.77-17,119.21,119.21,0,0,0-5-34.62C681.64,371.87,676.08,367.18,669.62,366.62Z"/><path class="cls-9" d="M670.64,410.82l19.94-4.16s2.81,22.17-6,52.46l-17.86-9.05Z"/><path class="cls-11" d="M671.31,411c-5.26-.47-10.41,7.88-11.49,18.64s2.29,19.85,7.55,20.32c2.29.19,4.55-1.27,6.47-3.87a39.9,39.9,0,0,0,3.13-9.24,51,51,0,0,0,1.08-10.8,37.84,37.84,0,0,0-1.6-11C675.13,412.65,673.36,411.17,671.31,411Z"/><path class="cls-9" d="M559.13,153.16c-7-2.46-50.06-1.24-68,2.42-7.66,1.56-7,11.18-.14,13.83,18.4,7.07,41.91,7.39,58.1,6C563.27,174.21,566.65,155.82,559.13,153.16Z"/><path class="cls-5" d="M541.59,213l-2.8,3.71a16.37,16.37,0,0,1,1.88,1.88c1.09,1.46-1.55,8.67.41,9.44.93.36,2.48-1.76,3.16-3.5s1.83-4.64,2.2-5.63c.48-1.27,1.69-3.27,1.4-3.93-.75-1.69-2.92-.76-4.11-1.23S541.59,213,541.59,213Z"/><path class="cls-13" d="M538.56,216.76a8.44,8.44,0,0,1,2.11,1.82s.28.63,1.12,0,1.94-4.87,1.94-4.87c-1-.42-3.09-1.21-3.09-1.21Z"/><path class="cls-11" d="M567.85,146c-7.33-1-52.91,10.52-69.74,17.85-7.16,3.12-4.53,12.4,2.76,13.55,19.47,3.08,45.67,2.83,61.22-1.9C575.74,171.38,575.76,147.05,567.85,146Z"/><path class="cls-11" d="M497.23,179.32l41.36,38c1.8-.4,3.66-2.3,4.92-4.11,0,0-14.47-20.39-31.61-42.93C500.6,155.39,487.56,170.44,497.23,179.32Z"/><path class="cls-5" d="M480.54,219.48l-4.6-.67a16.38,16.38,0,0,1-.75,2.56c-.75,1.66-8.34,2.82-8.07,4.91.13,1,2.74,1.32,4.59,1.08s5-.63,6-.78c1.33-.2,3.67-.1,4.11-.67,1.12-1.47-.74-2.92-.9-4.2C480.77,220.61,480.54,219.48,480.54,219.48Z"/><path class="cls-13" d="M475.77,218.65a8.38,8.38,0,0,1-.58,2.72s-.41.55.53,1c.76.36,5.2-.65,5.2-.65-.13-1.1-.43-3.29-.43-3.29Z"/><path class="cls-9" d="M483.39,163.58l-8.2,55.55c1.34,1.27,4.34,1.74,6.49.88,0,0,8.59-23.07,17.62-49.9C505.25,152.41,485.3,150.59,483.39,163.58Z"/><path class="cls-4" d="M574.52,80.87c1,7.27,2.81,7.8,5.07,9.95,11.15,10.59-7.32,28.32-9.26,20.86-.75-2.9,7.31-5.91-3.1-11.59-11.51-6.28-6.78-11.66-5.86-15.63,3.49-15.08-4.09-12.06-6.06-9.13-1.17,1.74-2.08.88-2.31-.68C552.11,68.32,571.1,56.75,574.52,80.87Z"/><path class="cls-13" d="M501.89,145a8.78,8.78,0,0,0,2.56.66,1.21,1.21,0,0,1-1.26,1.25,5.36,5.36,0,0,1-2.34-1.86C500.76,144.36,501.46,144.83,501.89,145Z"/><path class="cls-13" d="M498.79,148.66c.16-.1,2.49-1.58,3.59-2.12.93-.46,2-.74,3-1.32a27,27,0,0,1,2.38,3.73c-1.54.8-9.48,5.28-9.14,3.24,0-.15-1.4.58-1.47-.35a.88.88,0,0,1-.64-.47,1.06,1.06,0,0,1,.3-1.36C497.14,149.72,498.33,149,498.79,148.66Z"/><path class="cls-13" d="M526.45,128.55c.12-.57,2.39-17.62,6.89-26.11C535.73,98,544,96.6,544,105.21c0,5.53-6.38,20.74-10.11,25.89-3.52,5-19.52,14.81-26.74,18.22L505,145.39c2.92-1.3,9.56-6.92,14.89-11.42C522.37,131.9,524.69,129.94,526.45,128.55Z"/><path class="cls-3" d="M527.78,115.82a38.05,38.05,0,0,1,3.68-12.27c4.06-7.6,10.72-2.5,10.7,2.58,0,3.6,0,8.29-1,12.56Z"/><path class="cls-7" d="M549.56,83.61c-.25,2.3.64,8.63,1.47,9.79-1.74,4.27-8.6,4.5-9.16,2,1-2.7-.33-7.61-.36-8.08C543.21,87.56,549,84.06,549.56,83.61Z"/><path class="cls-5" d="M530.06,154.43c3.75,5.07,20.4,7.48,35.63,1l.7-9.56,3,22.09c1.42.41,3,.57,3.84-.23,4.07-44.87.37-67.2-14.79-72.71-1.7-.61-7-1.6-7-1.6s-3.56,3.61-6,3.61c-3.35,0-3.15-1.57-3.15-1.57a41.07,41.07,0,0,0-5.59,2c-3.1,2-3.67,5.94-3.77,9.79,0,1.3,0,2.59,0,3.78s-.08,2.89-.21,4.7C532,124.77,530.06,139.66,530.06,154.43Z"/><path class="cls-3" d="M545.1,96.74c2.45,0,6.32-3.34,6.32-3.34L555,94a16.08,16.08,0,0,1,3.43,1c-6.7,3.55-16.78,13-16.78,13s-4.34-5.74-4.87-10.65a40.57,40.57,0,0,1,5.46-1.89S542.69,96.74,545.1,96.74Z"/><path class="cls-3" d="M533,114.38a79.84,79.84,0,0,0,14.06.89l.09.84a38.11,38.11,0,0,0,12.58-2.4c8-3.26,3.59-10.41-1.47-10.9-3.58-.36-8.24-.88-12.61-.25l.11.9h0c-5.17.76-10,1.85-12.53,2.44,0,1.3,0,2.59,0,3.78S533.13,112.57,533,114.38Z"/><path class="cls-7" d="M509.38,87.88a8.8,8.8,0,0,0,.36,2.61,1.19,1.19,0,0,1-1.63-.69,5.45,5.45,0,0,1,.83-2.87C509.59,86.57,509.42,87.4,509.38,87.88Z"/><path class="cls-7" d="M503.26,90.68l0,0c1.74,1.67,4,3.49,4.69,4.07a27.74,27.74,0,0,0,2.55-3.62c-.92-.74-1.57-1.6-2.36-2.29s-3.16-2.4-3.32-2.52c-.47-.29-1.6-1.12-2-1.31a1.06,1.06,0,0,0-1.34.2c-.12.18-.3.68.83,1.44a22.93,22.93,0,0,1,2.13,1.58s-1,.17-.67.84c0,0-.86.07-.62.84C503.2,90,502.77,90.22,503.26,90.68Z"/><path class="cls-7" d="M507.41,94.37c5.89,5.38,21,16.48,27,17.84,3.28.79,9.47,1.21,15.32,1.11,5.17-.08,10.07-.57,12.47-1.55,8-3.26,3.59-10.4-1.47-10.9a55.34,55.34,0,0,0-12.52.66c-7.26,1-13.89,2.77-14.26,2.84-2-1.12-4.64-2.52-7.47-4-6-3.12-13.32-7-15.93-9.21a.12.12,0,0,1-.05,0l-.24-.21h0l-2.8,3.42Z"/><path class="cls-7" d="M546.24,74.13c3.72,1.05,5.3,4.8,4.26,8.48l-1.08,3.82c-.79,2.77-6.3,5.93-8.57,4.73-5.37-2.82-3.63-13.63-3.1-14.76C539.22,73.25,542.79,73.15,546.24,74.13Z"/><path class="cls-4" d="M541.39,71.56s9-3.25,13.11,2.47c6.24,8.61-4.6,14.81-4.6,14.81-.58-2.93.28-12.77-7.93-14.37,0,0-4.85,1.18-4.91,8C534.56,80.56,535.11,71.44,541.39,71.56Z"/><path class="cls-7" d="M551.76,83.87a3.46,3.46,0,0,1-2.48,2.25,46.91,46.91,0,0,1-.73-4.65,3.2,3.2,0,0,1,1.68-.21C551.21,81.42,551.93,82.89,551.76,83.87Z"/><path class="cls-5" d="M553.7,71.2a2.41,2.41,0,0,1,1.32.65c1.64,1.53,1.4,2.84.6,3.93a12.55,12.55,0,0,0-3.89-4.08A3,3,0,0,1,553.7,71.2Z"/><path class="cls-5" d="M549.61,114.17a38.37,38.37,0,0,0,12.58-2.4c8-3.26,3.59-10.4-1.47-10.9-3.58-.36-8.24-.88-12.6-.25Z"/><path class="cls-8" d="M562.14,147.29h0a1.57,1.57,0,0,1-1.56,1.56h-36.7a1.56,1.56,0,0,1-1.56-1.56h39.81Z"/><path class="cls-8" d="M518.37,114.93,526,146.88c.13.51,0,2-1.89,2l-31.09-.4V112.83h22.52A2.84,2.84,0,0,1,518.37,114.93Z"/><path class="cls-4" d="M476.13,112.83h39.74a.91.91,0,0,1,.88.67l8.19,34.2a.92.92,0,0,1-.88,1.16h-37a4.52,4.52,0,0,1-4.35-3.31L475.25,114A.91.91,0,0,1,476.13,112.83Z"/><polygon class="cls-14" points="512.44 146.89 522.56 146.89 520.51 137.62 512.44 146.89"/><path class="cls-14" d="M517.37,123.35l-2-9.17h-2.87L484,146.89h12.88Z"/><path class="cls-11" d="M520.29,8.82,425,19a16,16,0,0,0-14.25,17.68l2.91,27.14A16,16,0,0,0,431.36,78.1l70.88-7.6,22.25,14.32-5.11-16.15,7.24-.78a16.06,16.06,0,0,0,14.26-17.68L538,23.07A16.05,16.05,0,0,0,520.29,8.82Z"/><polygon class="cls-7" points="516.29 41.54 517.9 35.9 520.86 40.95 526.08 41.16 522.9 45.8 524.52 51.57 519.6 49.37 515.38 52.73 515.51 46.74 511.29 43.05 516.29 41.54"/><polygon class="cls-7" points="431.75 52.12 433.37 46.48 436.32 51.54 441.54 51.74 438.37 56.38 439.98 62.15 435.06 59.96 430.84 63.32 430.98 57.33 426.76 53.63 431.75 52.12"/><polygon class="cls-7" points="493.77 33.04 495.38 27.4 498.34 32.45 503.56 32.66 500.38 37.29 502 43.07 497.08 40.87 492.86 44.23 492.99 38.24 488.77 34.55 493.77 33.04"/><polygon class="cls-7" points="471.98 30.13 473.59 24.49 476.54 29.55 481.76 29.75 478.59 34.39 480.2 40.16 475.28 37.97 471.06 41.33 471.2 35.33 466.98 31.64 471.98 30.13"/><polygon class="cls-7" points="451.62 38.49 453.23 32.85 456.19 37.91 461.4 38.11 458.23 42.75 459.85 48.52 454.93 46.32 450.71 49.69 450.84 43.69 446.62 40 451.62 38.49"/><path class="cls-9" d="M350.15,110.59a16.26,16.26,0,0,0,.24-2.06,11.52,11.52,0,0,0,0-1.44h0a15.8,15.8,0,0,0-2.23-7.46,15.14,15.14,0,0,0-1.23-1.77,15.33,15.33,0,0,0-4.33-3.7,12.32,12.32,0,0,0-1.78-.89c-.47-.2-1-.38-1.45-.54L333.86,91,324,94.59a15.92,15.92,0,0,0-.66-1.64,6.39,6.39,0,0,0-.4-.78,15.42,15.42,0,0,0-4.19-4.84,12,12,0,0,0-1.55-1,14.85,14.85,0,0,0-3.27-1.45l-5.27-1.63-1.27,1a15.72,15.72,0,0,0-11.23,7h0a15.21,15.21,0,0,0-1.81,3.89,14.19,14.19,0,0,0-.53,2.28,13.38,13.38,0,0,0-.16,2.36,14.34,14.34,0,0,0,.5,3.92c.24.91,6.54,12.61,11.55,21.83l.71,9.55,5.4,1.67s31-15.64,31.81-16.18c.26-.16.72-.53.72-.53a15.19,15.19,0,0,0,4.5-5.52h0a15.39,15.39,0,0,0,.87-2.21c.15-.49.41-1.64.43-1.73Z"/><path class="cls-11" d="M345,105.42h0A15.73,15.73,0,0,0,342.77,98a16.45,16.45,0,0,0-1.23-1.77,15.5,15.5,0,0,0-4.33-3.71,12.27,12.27,0,0,0-1.78-.88,12.64,12.64,0,0,0-1.45-.54,15.91,15.91,0,0,0-4-.69,14.25,14.25,0,0,0-1.85,0,15.76,15.76,0,0,0-6,1.74c-.08,0-3.09,2.06-3.1,2a26.51,26.51,0,0,0-1.09-2.91,7.2,7.2,0,0,0-.4-.78,15.53,15.53,0,0,0-4.19-4.84,11.91,11.91,0,0,0-1.55-1,14.39,14.39,0,0,0-3.27-1.45,14.86,14.86,0,0,0-1.92-.46,14,14,0,0,0-1.92-.23,15.56,15.56,0,0,0-5.74.78,16.2,16.2,0,0,0-2.11.88,15.57,15.57,0,0,0-6.08,5.46h0a15,15,0,0,0-1.81,3.88,14.45,14.45,0,0,0-.53,2.28,15.73,15.73,0,0,0,.34,6.28c.4,1.52,17.67,33.06,17.66,33.06s31-15.64,31.81-16.18c.26-.17.72-.54.72-.54a15.16,15.16,0,0,0,4.5-5.51h0a16.37,16.37,0,0,0,.87-2.21c.15-.49.41-1.64.43-1.73v0a15.9,15.9,0,0,0,.24-2A11.53,11.53,0,0,0,345,105.42Z"/><polygon class="cls-9" points="303.81 327.66 307.86 300.56 324.61 322.18 348.89 319.97 337.01 343.37 347.98 369.12 323.87 361.94 306.37 380.05 303.35 352.22 281.59 337.68 303.81 327.66"/><polygon class="cls-9" points="356.29 366.96 347.98 369.12 328.06 363.17 332.11 359.56 356.29 366.96"/><polygon class="cls-9" points="307.86 300.56 316.17 298.39 323.49 323.02 312.13 325.49 303.81 327.66 307.86 300.56"/><polygon class="cls-9" points="289.9 335.52 281.59 337.68 303.35 352.22 311.67 350.06 289.9 335.52"/><polygon class="cls-9" points="314.68 377.89 306.37 380.05 303.35 352.22 311.67 350.06 314.68 377.89"/><polygon class="cls-9" points="312.13 325.49 316.17 298.39 332.93 320.02 357.21 317.81 345.32 341.21 356.29 366.96 332.18 359.77 314.68 377.89 311.67 350.06 289.9 335.52 312.13 325.49"/><path class="cls-5" d="M279,160l144.1-9.62a24.21,24.21,0,0,1,25.77,22.54L451.65,214a24.21,24.21,0,0,1-22.54,25.76l-95.36,6.37-41.71,34-1-31.11-6.05.4a24.2,24.2,0,0,1-25.76-22.54l-2.74-41.06A24.2,24.2,0,0,1,279,160Z"/><path class="cls-7" d="M303.06,186.38a14.51,14.51,0,0,1-3.68,10.79,14.27,14.27,0,0,1-10.36,5,15,15,0,1,1,14-15.82Zm-6,.36a8.91,8.91,0,0,0-9.5-8.43,8.81,8.81,0,0,0-6.16,2.94,8.57,8.57,0,0,0-2.26,6.56,9,9,0,1,0,17.92-1.07Zm24-15.31-24.55,64.83-6.14.37L315,171.8Zm17.28,48.46a14.51,14.51,0,0,1-3.68,10.79,15,15,0,0,1-22.46-19.85,14.91,14.91,0,0,1,26.14,9.06Zm-6,.36a8.89,8.89,0,0,0-9.49-8.43,8.79,8.79,0,0,0-6.16,2.94,8.54,8.54,0,0,0-2.27,6.56,9,9,0,1,0,17.92-1.07Z"/><path class="cls-7" d="M426.77,168.14,397.39,170c-.53,0-.86.69-.76,1.46s.61,1.38,1.14,1.35L427.15,171c.52,0,.86-.69.76-1.46S427.29,168.11,426.77,168.14Z"/><path class="cls-7" d="M392.74,170.32l-9.87.64c-.52,0-.86.69-.75,1.46s.61,1.39,1.13,1.35l9.87-.63c.52,0,.86-.69.76-1.47S393.26,170.29,392.74,170.32Z"/><path class="cls-7" d="M375.94,171.4l-27.23,1.75c-.52,0-.86.69-.76,1.47s.62,1.38,1.14,1.34l27.23-1.74c.52,0,.86-.69.75-1.47S376.46,171.37,375.94,171.4Z"/><path class="cls-7" d="M421.74,177.48l-14.89,1c-.52,0-.86.69-.76,1.47s.62,1.38,1.14,1.34l14.89-.95c.53,0,.86-.69.76-1.47S422.26,177.45,421.74,177.48Z"/><path class="cls-7" d="M399.77,178.89,370,180.81c-.53,0-.86.69-.76,1.47s.61,1.38,1.14,1.34l29.82-1.91c.53,0,.87-.69.76-1.47S400.3,178.86,399.77,178.89Z"/><path class="cls-7" d="M364.41,181.16l-15.18,1c-.52,0-.86.69-.76,1.47s.62,1.37,1.14,1.34l15.18-1c.53,0,.87-.69.76-1.47S364.94,181.13,364.41,181.16Z"/><path class="cls-7" d="M421.16,187l-37.29,2.4c-.53,0-.86.69-.76,1.47s.62,1.38,1.14,1.34l37.29-2.39c.52,0,.86-.69.76-1.47S421.68,187,421.16,187Z"/><path class="cls-7" d="M373.67,190l-23.46,1.51c-.52,0-.86.69-.76,1.47s.62,1.38,1.14,1.34l23.46-1.5c.52,0,.86-.69.76-1.47S374.19,190,373.67,190Z"/><path class="cls-7" d="M398.71,202l-39.91,2.56c-.52,0-.86.69-.75,1.47s.61,1.38,1.14,1.34l39.9-2.56c.52,0,.86-.69.76-1.47S399.24,201.93,398.71,202Z"/><path class="cls-7" d="M418.23,209.69l-65.68,4.21c-.52,0-.86.69-.76,1.47s.62,1.38,1.14,1.34l65.68-4.21c.52,0,.86-.69.76-1.47S418.75,209.65,418.23,209.69Z"/><path class="cls-7" d="M401,221.9l-41.5,2.67c-.52,0-.86.69-.75,1.47s.61,1.37,1.13,1.34l41.5-2.66c.52,0,.86-.69.75-1.47S401.49,221.87,401,221.9Z"/><path class="cls-7" d="M428.28,200.07l-24.64,1.58c-.52,0-.86.69-.76,1.47s.62,1.38,1.14,1.35l24.64-1.59c.52,0,.86-.69.76-1.46S428.8,200,428.28,200.07Z"/><path class="cls-3" d="M59.55,255.75l15.08,95.11,9,56.58,18.79,118.5c1.69,10.66,13.09,19.37,25.33,19.35l98-.22,21-.05a23.48,23.48,0,0,0,5.26-.59,20,20,0,0,0,7.4-3.3,17,17,0,0,0,2.17-1.86l4.18-4.23,2.79-2.84,1.93-1.94,0,0-2.05-2.43-1.66-2h0l-.7.38c0-.22,0-.44-.07-.66L248.77,417.26l-13.43-84.92-1.72-10.88-.1-.6-.74-4.67h0l-9.59-60.68a19.82,19.82,0,0,0-3.27-8h0a24.82,24.82,0,0,0-4.81-5.19c-.52-.43-1.06-.83-1.61-1.21h0l-.3-.21h0l-.31-.2a27.11,27.11,0,0,0-3.38-1.89q-.6-.28-1.2-.54a27.62,27.62,0,0,0-6.8-1.87h0a26.17,26.17,0,0,0-3.66-.25l-10.39,0H158.82l-23.47,0-10,0-11.49,0h-.21l-28.2,0H80.61l-1.89-.93h0l-5.52-2.72-.14.15h0l0,.05-8.82,8.93h0A15.63,15.63,0,0,0,59.55,255.75Z"/><path class="cls-4" d="M141.27,537.78c.75,0,.87.49.26,1.1a4,4,0,0,1-2.45,1.12c-.75,0-.87-.49-.27-1.11A4.07,4.07,0,0,1,141.27,537.78Z"/><path class="cls-4" d="M145.54,537.76c.75,0,.87.5.26,1.11a4.07,4.07,0,0,1-2.46,1.11c-.75,0-.87-.49-.26-1.1A4,4,0,0,1,145.54,537.76Z"/><path class="cls-4" d="M149.8,537.75c.75,0,.87.49.26,1.1a4,4,0,0,1-2.45,1.12c-.75,0-.87-.49-.26-1.11A4,4,0,0,1,149.8,537.75Z"/><path class="cls-4" d="M154.07,537.74c.75,0,.87.49.26,1.1a4,4,0,0,1-2.45,1.12c-.76,0-.87-.5-.27-1.11A4.07,4.07,0,0,1,154.07,537.74Z"/><path class="cls-4" d="M158.33,537.72c.76,0,.87.49.27,1.11a4.07,4.07,0,0,1-2.46,1.11c-.75,0-.87-.49-.26-1.1A4,4,0,0,1,158.33,537.72Z"/><path class="cls-4" d="M162.6,537.71c.75,0,.87.49.27,1.11a4.07,4.07,0,0,1-2.46,1.11c-.75,0-.87-.49-.27-1.11A4.07,4.07,0,0,1,162.6,537.71Z"/><path class="cls-4" d="M166.87,537.7c.75,0,.87.49.26,1.1a4,4,0,0,1-2.45,1.12c-.76,0-.87-.5-.27-1.11A4.07,4.07,0,0,1,166.87,537.7Z"/><path class="cls-4" d="M137.93,541.16c.75,0,.87.49.27,1.1a4,4,0,0,1-2.46,1.12c-.75,0-.87-.49-.26-1.11A4,4,0,0,1,137.93,541.16Z"/><path class="cls-4" d="M142.2,541.14c.75,0,.87.5.26,1.11a4.09,4.09,0,0,1-2.45,1.12c-.75,0-.87-.5-.27-1.11A4.14,4.14,0,0,1,142.2,541.14Z"/><path class="cls-4" d="M146.47,541.13c.75,0,.87.49.26,1.11a4.07,4.07,0,0,1-2.46,1.11c-.75,0-.87-.49-.26-1.1A4,4,0,0,1,146.47,541.13Z"/><path class="cls-4" d="M150.73,541.12c.75,0,.87.49.26,1.11a4,4,0,0,1-2.45,1.11c-.75,0-.87-.49-.26-1.11A4,4,0,0,1,150.73,541.12Z"/><path class="cls-4" d="M155,541.1c.75,0,.87.5.26,1.11a4.09,4.09,0,0,1-2.45,1.12c-.76,0-.87-.5-.27-1.11A4.14,4.14,0,0,1,155,541.1Z"/><path class="cls-4" d="M159.26,541.09c.76,0,.87.49.27,1.11a4.07,4.07,0,0,1-2.46,1.11c-.75,0-.87-.49-.26-1.1A4,4,0,0,1,159.26,541.09Z"/><path class="cls-4" d="M163.53,541.08c.75,0,.87.49.26,1.1a4,4,0,0,1-2.45,1.12c-.75,0-.87-.49-.27-1.11A4.07,4.07,0,0,1,163.53,541.08Z"/><path class="cls-4" d="M171,537.68c.75,0,.87.5.26,1.11a4.09,4.09,0,0,1-2.45,1.12c-.76,0-.87-.5-.27-1.11A4.08,4.08,0,0,1,171,537.68Z"/><path class="cls-4" d="M167.62,541.06c.75,0,.87.5.27,1.11a4.08,4.08,0,0,1-2.46,1.12c-.75,0-.87-.5-.26-1.11A4.09,4.09,0,0,1,167.62,541.06Z"/><path class="cls-4" d="M175.05,537.67c.75,0,.87.49.27,1.11a4.07,4.07,0,0,1-2.46,1.11c-.75,0-.87-.49-.26-1.1A4,4,0,0,1,175.05,537.67Z"/><path class="cls-4" d="M171.72,541.05c.75,0,.87.49.26,1.11a4.07,4.07,0,0,1-2.46,1.11c-.75,0-.87-.49-.26-1.1A4,4,0,0,1,171.72,541.05Z"/><path class="cls-4" d="M220,537.44c.75,0,.87.49.26,1.1a4,4,0,0,1-2.45,1.12c-.76,0-.87-.49-.27-1.11A4.07,4.07,0,0,1,220,537.44Z"/><path class="cls-4" d="M224.25,537.42c.76,0,.87.5.27,1.11a4.14,4.14,0,0,1-2.46,1.12c-.75,0-.87-.5-.26-1.11A4,4,0,0,1,224.25,537.42Z"/><path class="cls-4" d="M228.52,537.41c.75,0,.87.49.26,1.11a4,4,0,0,1-2.45,1.11c-.75,0-.87-.49-.27-1.1A4,4,0,0,1,228.52,537.41Z"/><path class="cls-4" d="M232.79,537.4c.75,0,.87.49.26,1.1a4,4,0,0,1-2.46,1.12c-.75,0-.87-.49-.26-1.11A4.07,4.07,0,0,1,232.79,537.4Z"/><path class="cls-4" d="M237.05,537.38c.76,0,.87.5.27,1.11a4.14,4.14,0,0,1-2.46,1.12c-.75,0-.87-.5-.26-1.11A4.09,4.09,0,0,1,237.05,537.38Z"/><path class="cls-4" d="M241.32,537.37c.75,0,.87.49.26,1.11a4,4,0,0,1-2.45,1.11c-.75,0-.87-.49-.27-1.1A4,4,0,0,1,241.32,537.37Z"/><path class="cls-4" d="M245.59,537.36c.75,0,.87.49.26,1.1a4,4,0,0,1-2.46,1.12c-.75,0-.87-.49-.26-1.11A4.07,4.07,0,0,1,245.59,537.36Z"/><path class="cls-4" d="M216.65,540.82c.75,0,.87.49.27,1.11a4.07,4.07,0,0,1-2.46,1.11c-.75,0-.87-.49-.27-1.11A4.07,4.07,0,0,1,216.65,540.82Z"/><path class="cls-4" d="M220.92,540.81c.75,0,.87.49.26,1.1a4,4,0,0,1-2.45,1.12c-.76,0-.87-.5-.27-1.11A4.07,4.07,0,0,1,220.92,540.81Z"/><path class="cls-4" d="M225.18,540.79c.76,0,.87.5.27,1.11A4.14,4.14,0,0,1,223,543c-.75,0-.87-.5-.26-1.11A4,4,0,0,1,225.18,540.79Z"/><path class="cls-4" d="M229.45,540.78c.75,0,.87.49.26,1.11a4,4,0,0,1-2.45,1.11c-.75,0-.87-.49-.27-1.11A4.07,4.07,0,0,1,229.45,540.78Z"/><path class="cls-4" d="M233.72,540.77c.75,0,.87.49.26,1.1a4,4,0,0,1-2.46,1.12c-.75,0-.87-.49-.26-1.11A4.07,4.07,0,0,1,233.72,540.77Z"/><path class="cls-4" d="M238,540.75c.75,0,.87.49.27,1.11a4.07,4.07,0,0,1-2.46,1.11c-.75,0-.87-.49-.26-1.1A4,4,0,0,1,238,540.75Z"/><path class="cls-4" d="M242.25,540.74c.75,0,.87.49.26,1.1a4,4,0,0,1-2.45,1.12c-.75,0-.87-.49-.27-1.11A4.07,4.07,0,0,1,242.25,540.74Z"/><path class="cls-4" d="M249.68,537.34c.75,0,.87.5.26,1.11a4.09,4.09,0,0,1-2.45,1.12c-.76,0-.87-.5-.27-1.11A4.14,4.14,0,0,1,249.68,537.34Z"/><path class="cls-4" d="M246.34,540.73c.75,0,.87.49.26,1.1a4,4,0,0,1-2.45,1.12c-.75,0-.87-.5-.26-1.11A4,4,0,0,1,246.34,540.73Z"/><path class="cls-4" d="M253.77,537.33c.75,0,.87.49.26,1.11a4,4,0,0,1-2.45,1.11c-.75,0-.87-.49-.26-1.1A4,4,0,0,1,253.77,537.33Z"/><path class="cls-4" d="M250.44,540.71c.74,0,.86.5.26,1.11a4.14,4.14,0,0,1-2.46,1.12c-.75,0-.87-.5-.26-1.11A4,4,0,0,1,250.44,540.71Z"/><path class="cls-5" d="M69.2,246,88,364.87l4.56,28.71L112,516.16c1.7,10.67,13.1,19.38,25.34,19.35l57.82-.12,29.4-.08h0l28.24-.06h3.49c.55,0,1.08,0,1.62-.07a22.39,22.39,0,0,0,6.32-1.32,18.76,18.76,0,0,0,4.21-2.15,17.24,17.24,0,0,0,1.9-1.48h0a17.44,17.44,0,0,0,1.74-1.81c.17-.21.35-.43.51-.65a14.91,14.91,0,0,0,.86-1.27.53.53,0,0,1,.06-.1c.14-.23.27-.47.4-.72s.25-.49.37-.73.19-.45.28-.69a.2.2,0,0,0,0-.08c.09-.23.18-.47.26-.71a.14.14,0,0,0,0-.06c.09-.26.17-.52.25-.79a16.09,16.09,0,0,0,.35-6.84l-5.11-32.35-3.7-23.38-4.34-27.43-8.55-54-8.27-52.22-1.15-7.33-2.34-14.79-1.79-11.34-7.47-47.2c-1.69-10.68-13.08-19.4-25.33-19.38l-13.31,0-42.08.07-17.58,0-9.09,0-22.82,0-14.25,0h-1c-.17,0-.35,0-.51,0a4.36,4.36,0,0,0-.51,0c-.34,0-.67.06-1,.11a6.17,6.17,0,0,0-.62.09l-.36.06-.16,0a4.34,4.34,0,0,0-.52.09l-.28.06-.65.15-.29.07-.61.17h0l-.83.26c-.25.09-.51.18-.76.29l-.13.05c-.25.09-.49.19-.72.29l0,0-.78.36a17.79,17.79,0,0,0-5.32,3.93l-.14.15h0l0,.05A15.57,15.57,0,0,0,69.2,246Z"/><path class="cls-2" d="M75.66,243.76l.6,3.74,20,126.09,12.41,78.32,6.61,41.67,3.23,20.36a16.89,16.89,0,0,0,6.29,10,22.37,22.37,0,0,0,13.85,5.13l57.07-.14h5.37l6.39,0H218l11.3,0,12.13,0,16.27,0a16.09,16.09,0,0,0,1.72-.09,12,12,0,0,0,7.79-3.43,8.72,8.72,0,0,0,1.9-7.33l-7.65-48.36L240.11,334.89h0l-11.28-71.27h0l-2.48-15.66c0-.14,0-.3-.08-.44-.84-4.34-4-8.36-8.24-11.09a22.1,22.1,0,0,0-11.87-3.66h-6.07l-4,0h-9.14l-73.57.11H99.91l-12.87,0a17.93,17.93,0,0,0-2.8.23,12.75,12.75,0,0,0-5.13,1.94,10.12,10.12,0,0,0-1.56,1.33A8.68,8.68,0,0,0,75.66,243.76Z"/><path class="cls-7" d="M199.15,238.25l.29,1.54.85,4.3h13.79l-.18-1-.4-2h0l-.37-1.89-.18-.95Zm14.3,5.3H200.71l-.2-1.06-.72-3.7h12.73l.37,1.89Z"/><polygon class="cls-7" points="209.63 243.82 200.5 243.82 199.46 238.51 208.6 238.51 209.63 243.82"/><polygon class="cls-7" points="215.27 243.13 213.63 243.13 212.87 239.2 214.51 239.2 215.27 243.13"/><polygon class="cls-7" points="82.46 243.54 80.62 243.54 80.07 240.69 81.91 240.69 82.46 243.54"/><polygon class="cls-7" points="86.33 243.54 84.49 243.54 83.67 239.31 85.51 239.31 86.33 243.54"/><polygon class="cls-7" points="90.11 243.54 88.27 243.54 87.11 237.57 88.95 237.57 90.11 243.54"/><path class="cls-7" d="M105.07,242.83a.43.43,0,0,1-.27-.11,3,3,0,0,0-1.94-.86,2.16,2.16,0,0,0-1.55.84.34.34,0,0,1-.49,0,.39.39,0,0,1-.14-.51,2.67,2.67,0,0,1,2-1.08,3.74,3.74,0,0,1,2.52,1.07.35.35,0,0,1,.09.5A.28.28,0,0,1,105.07,242.83Z"/><path class="cls-7" d="M105.84,241.32a.47.47,0,0,1-.28-.11,4.79,4.79,0,0,0-3-1.34h0a3.8,3.8,0,0,0-2.75,1.34.35.35,0,0,1-.5,0,.38.38,0,0,1-.11-.51,4.32,4.32,0,0,1,3.21-1.55h0a5.64,5.64,0,0,1,3.61,1.55.37.37,0,0,1,.09.51A.33.33,0,0,1,105.84,241.32Z"/><path class="cls-7" d="M97.85,239.87a.39.39,0,0,1-.26-.1.37.37,0,0,1-.12-.5,6,6,0,0,1,4.57-2.34h.09a8.35,8.35,0,0,1,5.34,2.33.35.35,0,0,1,.09.5.35.35,0,0,1-.5,0,7.39,7.39,0,0,0-4.87-2.12,5.55,5.55,0,0,0-4.1,2.11A.3.3,0,0,1,97.85,239.87Z"/><path class="cls-7" d="M104.17,243.77a.69.69,0,0,1-.69.86,1.08,1.08,0,0,1-1-.86.68.68,0,0,1,.69-.85A1.09,1.09,0,0,1,104.17,243.77Z"/><path class="cls-8" d="M178.31,235.11c2.51,1.92,3.23,4.8,1.63,6.42s-4.94,1.4-7.45-.52-3.23-4.79-1.62-6.42S175.8,233.2,178.31,235.11Z"/><path class="cls-4" d="M177.52,235.92c1.9,1.45,2.53,3.57,1.39,4.72s-3.6.91-5.51-.55-2.53-3.58-1.39-4.73S175.61,234.46,177.52,235.92Z"/><path class="cls-8" d="M127.07,234.93a1.3,1.3,0,0,1,.22,0h.09l.05,0,34,0,.15,0a4.84,4.84,0,0,1,2.77,1c1.58,1.2,2.09,3,1.14,3.94a2.26,2.26,0,0,1-1.08.54l-.35.07h-.91l-33.16.14-.14,0a4.75,4.75,0,0,1-3-1.05,3.74,3.74,0,0,1-1.61-2.68,1.75,1.75,0,0,1,.53-1.32A2.24,2.24,0,0,1,127.07,234.93Z"/><path class="cls-4" d="M158.8,236.8a4.82,4.82,0,0,1,2.78,1,3.73,3.73,0,0,1,1.6,2.6l-33.16.14-.14,0a4.75,4.75,0,0,1-3-1.05,3.74,3.74,0,0,1-1.61-2.68l33.35,0Z"/><path class="cls-8" d="M177.76,237.43c.77.6,1,1.46.56,1.93a1.81,1.81,0,0,1-2.24-.23c-.78-.59-1-1.45-.57-1.92A1.83,1.83,0,0,1,177.76,237.43Z"/><path class="cls-8" d="M174.58,236.5c.44.33.58.81.32,1.07a1,1,0,0,1-1.26-.12c-.43-.33-.57-.82-.31-1.08A1,1,0,0,1,174.58,236.5Z"/><path class="cls-4" d="M185.12,538.3a1,1,0,0,1,.77-.38h19.42c.64,0,.88.7.42,1.24l-2.6,3.09a1,1,0,0,1-.76.38H183c-.64,0-.88-.7-.42-1.24Z"/><path class="cls-9" d="M169.33,516.37l-17.38.12c-10.15,0-19.6-8.16-21.12-18.32l-1.76-11.72c-1.52-10.16,5.47-18.43,15.61-18.47l17.38-.13c10.15,0,19.6,8.16,21.13,18.32l1.75,11.73C186.46,508.06,179.47,516.33,169.33,516.37Z"/><path class="cls-9" d="M173.74,516.39l-17.38.13c-10.15,0-19.61-8.16-21.13-18.32l-1.75-11.73C132,476.31,139,468,149.09,468l17.38-.12c10.14-.05,19.6,8.16,21.12,18.31l1.76,11.73C190.87,508.08,183.88,516.35,173.74,516.39Z"/><polygon class="cls-13" points="148.82 478.48 153.05 478.48 157.16 505.92 152.93 505.92 148.82 478.48"/><polygon class="cls-7" points="153.05 478.48 178.43 492.1 157.16 505.92 153.05 478.48"/><path class="cls-3" d="M96.91,278.25l26,166.6c.79,6.58,6.14,12,11.88,11.94l93-.17c.26,0,.51,0,.76,0a8.67,8.67,0,0,0,3-.82,8.39,8.39,0,0,0,2-1.32,7.74,7.74,0,0,0,.89-.92h0a9.13,9.13,0,0,0,.81-1.12,3.85,3.85,0,0,0,.24-.4c.15-.25.28-.51.41-.78a.14.14,0,0,1,0-.06c.07-.14.13-.29.19-.44s.12-.3.17-.46.1-.27.14-.42a.17.17,0,0,1,0-.05l.12-.44a0,0,0,0,1,0,0c0-.16.07-.33.11-.49a12.82,12.82,0,0,0,.17-4.22l-26-166.53c-.79-6.58-6.14-12-11.88-11.94l-93.1.11h-.49l-.24,0-.24,0-.47.07-.29.05-.17,0-.08,0a1.05,1.05,0,0,0-.24.06l-.13,0-.31.09-.13.05-.29.1h0l-.39.16-.35.17-.06,0-.34.19h0l-.37.22A9.1,9.1,0,0,0,98.78,270a.61.61,0,0,0-.07.1h0s0,0,0,0A11.71,11.71,0,0,0,96.91,278.25Z"/><path class="cls-5" d="M102,278.25l26,166.6c.8,6.58,6.15,12,11.89,11.94l93-.17c.26,0,.51,0,.76,0a8.56,8.56,0,0,0,3-.82,8.44,8.44,0,0,0,2-1.32,8.61,8.61,0,0,0,.89-.92h0a10.33,10.33,0,0,0,.81-1.12c.08-.12.16-.26.24-.4a7.16,7.16,0,0,0,.4-.78l0-.06c.07-.14.13-.29.19-.44s.12-.3.17-.46l.14-.42a.43.43,0,0,0,0-.05c.05-.14.09-.29.13-.44a0,0,0,0,1,0,0c0-.16.07-.33.11-.49a13.1,13.1,0,0,0,.17-4.22L216,278.09c-.79-6.58-6.14-12-11.88-11.94l-93.1.11h-.49l-.24,0-.24,0-.47.07-.3.05-.16,0-.08,0a1.05,1.05,0,0,0-.24.06l-.13,0-.31.09-.13.05-.29.1h0l-.39.16-.35.17-.07,0-.33.19h0l-.37.22a9.1,9.1,0,0,0-2.49,2.42.61.61,0,0,0-.07.1h0s0,0,0,0A11.82,11.82,0,0,0,102,278.25Z"/><path class="cls-7" d="M228.12,344.06a3.39,3.39,0,0,1,0-1.08c1.29-5.55,10-26.5,10.86-32.55,1.7-.39,2.72.33,4,.34-.24,8.34-5.94,36-9.82,36.72C229.63,348.18,228.29,345.84,228.12,344.06Z"/><path class="cls-8" d="M202,329.48c.45-1.92,5.93-10.3,7.75-11a1.32,1.32,0,0,1,1.21.11c2.26,1.44,6.19,5.24,10.35,9.27,2.81,2.72,5.69,5.51,8.24,7.76.41-1.08.84-2.22,1.29-3.38,2.65-6.93,5.95-15.56,6.24-18.94l6.9,1.15c-.89,8.43-5,27.92-8.83,33.2,0,.07-.42.43-.88.86a3.51,3.51,0,0,1-4,.58C223.14,345.52,201,334,202,329.48Z"/><path class="cls-15" d="M188.55,496.29l3.78-2.11s.82,1.22,1.48,2c1.28,1.51,7.4,2.61,7.4,4.76,0,1.08-2.28,2.06-4.14,2.13a12.85,12.85,0,0,1-4.49-.62c-1.09-.36-3.6-1.38-4-2a3.09,3.09,0,0,1-.14-2.51C188.24,496.71,188.55,496.29,188.55,496.29Z"/><path class="cls-16" d="M193.43,494.06a1.87,1.87,0,0,0,.38,2.13s0,.8-1.43,1.59c-.81.45-3.94.12-3.94.12a16.34,16.34,0,0,1-.1-2.93Z"/><path class="cls-8" d="M203,370.35c.37,2.61,2.41,38.39-.27,70.93a330.22,330.22,0,0,1-9.38,53.62c0,.2-3.73,2.21-5.59.17,0,0,2.93-27.6-.79-53.63-3.21-22.48-7.59-43.79-9.37-45.19V372.43C186.76,373,200,371.68,203,370.35Z"/><path class="cls-15" d="M159.87,495.65l3.94-1.8s.71,1.27,1.31,2.11c1.16,1.61,7.18,3.18,7,5.32-.08,1.09-2.43,1.88-4.29,1.81a9,9,0,0,1-4.43-1c-1.18-.83-3.49-1.66-3.83-2.36a3.09,3.09,0,0,1,0-2.51C159.53,496,159.87,495.65,159.87,495.65Z"/><path class="cls-16" d="M164.62,493.68a2.69,2.69,0,0,0,.5,2.28s.26,1-1.23,1.72c-.84.38-4.26-.43-4.26-.43-.1-1.21,0-3,0-3Z"/><path class="cls-4" d="M159.64,369.43c9.05,1.31,33.29,7.59,36.42,6.5.15,2.64-12.52,34-17.76,66.26a327.07,327.07,0,0,1-13.5,52.46c-.07.19-3.9,1.9-5.59-.28,0,0,6.56-27.42,3.42-53.53C160.33,421.8,158.34,407.75,159.64,369.43Z"/><path class="cls-7" d="M204.4,304.9c-.08.52-2,5.82-1.2,8.91-.87,2.67-8.44,1.72-9.94-3.17,1-1.21,2.65-8.13,2.61-10.69C196.44,300.49,202.5,305,204.4,304.9Z"/><path class="cls-7" d="M199,290.73c3.14-1.47,6.55-1.93,8.44.84.68,1,4,11-.66,14.55-2,1.49-7.72-.66-8.9-3.18,0,0-1.6-3.44-1.62-3.47C194.69,296.13,195.61,292.3,199,290.73Z"/><path class="cls-8" d="M161.64,390.75l5-15-1.56,16c8.82,4.75,19.11,5.64,26.86,4.62h0a19.43,19.43,0,0,0,2.34-4.64c.9,1.64,1.67,3.13,2.07,3.81a28.27,28.27,0,0,0,5.78-2.06,18.46,18.46,0,0,0,1.85-1.08l-.05-1.76-2.54-14.52-37.48-15.81-4.69,28.26s0,1.08,0,1.82A22.57,22.57,0,0,1,161.64,390.75Z"/><path class="cls-4" d="M161.64,388.93,167,371.29,165.7,389.9A44,44,0,0,0,192,394.52h0a19.43,19.43,0,0,0,2.34-4.64c.9,1.64,1.67,3.13,2.07,3.81a28.27,28.27,0,0,0,5.78-2.06,12.06,12.06,0,0,0,3.57-2.54c0-.3,0-.6-.05-.9-1.42-26.49,5.92-53.28,6.33-56.23.72-5.17,3-11.1-1.29-14.42-1.12-.85-7.51-3.73-7.51-3.73s-1.82,1.79-3.66,1.42c-2.66-.54-6.28-4.59-6.28-4.59s-6,.55-7.94,1.06c-17.35,4.57-27.9,26.51-27.9,76.59C158.28,388.46,160.56,388.66,161.64,388.93Z"/><path class="cls-2" d="M193.26,310.64s3.62,4.05,6.29,4.59c1.83.37,3.65-1.42,3.65-1.42s6,2.69,7.37,3.64c-1.09,5.38-10.35,22.85-10.35,22.85s-7.84-24-14.9-28.6a16.9,16.9,0,0,1,3.9-.77Z"/><path class="cls-4" d="M189.57,288.59c3.68-8.51,17.22-8.34,20.53-1.77.73,1.45,1,5.68-14.26,9.06-.58,3.16,1.2,8.78,1.2,8.78C191.23,302.89,186.75,295.1,189.57,288.59Z"/><path class="cls-7" d="M195.12,298.33a3.14,3.14,0,0,1,1.57-.46,43.52,43.52,0,0,1,1.14,4.4,3.35,3.35,0,0,1-3.06-1A2.37,2.37,0,0,1,195.12,298.33Z"/><path class="cls-7" d="M245.32,309.28l0,.06a36.76,36.76,0,0,1-2.62,3.31c-1.46-.11-3.64-2.16-3.63-2.22s.27-.8.42-1c.68-.93,1.28-1.94,1.81-2.63a3.8,3.8,0,0,1,2.19-1.23s1.13,1.53,1,2.27c0,0,.87-.11.78.71C245.22,308.55,245.71,308.72,245.32,309.28Z"/><path class="cls-11" d="M201.9,320l1.79,6.09a1.7,1.7,0,0,1,.06.71l-.8,6.8-2.12,5.52h-1.35l-1.07-7.25-.15-5.5a1.84,1.84,0,0,1,.11-.7l2.1-5.44Z"/><path class="cls-11" d="M203,319.24l-.19.55a1.29,1.29,0,0,1-1.21.86h-.87a1.28,1.28,0,0,1-1.11-.63l-.8-1.36a1.27,1.27,0,0,1,.07-1.42l1.47-2,.44-.14,2,2.94A1.31,1.31,0,0,1,203,319.24Z"/><path class="cls-13" d="M200.47,315.25l-2,4.34s-7-3.41-8.32-9.42l3.48-.22S194.87,312.8,200.47,315.25Z"/><path class="cls-13" d="M206.46,314.83s-.73,3.22-2.51,4.62l-3.48-4.2s2.87-.71,2.53-3A12.19,12.19,0,0,1,206.46,314.83Z"/><path class="cls-8" d="M190.36,310.41S197.94,324,200.22,338a37.54,37.54,0,0,1-.2,4.62s-4.87-13.42-12.55-19.28l1.65-3.49-3.78-1.63a16.94,16.94,0,0,0-2.57-6.35A30.26,30.26,0,0,1,190.36,310.41Z"/><path class="cls-8" d="M200.22,338s7.07-12.94,7-22.68c0,0,3.23,1.27,4.37,3.06,0,0-.4,5-1.81,6.7l-2.31.9,1.16,2.93s-4.05,9.54-8.59,13.71C200,342.57,200.32,338.55,200.22,338Z"/><path class="cls-8" d="M194.49,390.29l-.49-.08c2.93-17.79,5.81-47.81,5.84-48.11l.47.11C200.29,342.5,197.43,372.49,194.49,390.29Z"/><path class="cls-7" d="M168.77,364c.14.46-1.53,1.41-2,1.38-1.06-.42-.86-1.07-1.89-1.31a8.32,8.32,0,0,0,2.76-.31C168.15,363.57,168.61,363.24,168.77,364Z"/><path class="cls-7" d="M164.13,363.84a22.21,22.21,0,0,1,3.16,1c1.25.48,3.94,1.89,4.13,2a18.28,18.28,0,0,1,2.31,1.3,3.09,3.09,0,0,1,.54,1.53.7.7,0,0,1-.58.6c.06.69-1.53.42-1.48.58.19.69-.59,1.13-2.68,0-.13-.07-8.14-2.93-9.89-3.66C159.9,366,164.07,363.83,164.13,363.84Z"/><path class="cls-4" d="M144.34,332.31a38.68,38.68,0,0,1,4.6-4.08,11,11,0,0,1,.95-.83c5.55-4.37,28.46-17.95,32.75-13.54,1.44,1.48,5.72,11,5.28,13a1.41,1.41,0,0,1-.78,1c-2.55,1.17-8.12,2.48-14,3.86A153.85,153.85,0,0,0,157.18,336c-.49.18-1,.34-1.43.47.77,2.19,1.65,4.9,2.57,7.73,2.39,7.38,5.38,16.58,7.36,19.52l-6.37,3.6c-4.22-6.53-12-21.63-14.12-29.84h0A22.34,22.34,0,0,1,144.34,332.31Z"/><path class="cls-4" d="M246.75,317.27a.92.92,0,0,1-.7,1.09,1.11,1.11,0,0,1-1.23-.49L236,296.7l5.8-.92Z"/><path class="cls-11" d="M229,281l8-1.43,4,20.85-8,1.43c-5,.9-10-3.05-11.06-8.81S224,281.92,229,281Z"/><path class="cls-11" d="M236.68,279.63a2.45,2.45,0,0,1,.27,0h0l27.62-14.81,7.65,39.94L241,300.45h0l-.07,0c-3,.58-6.34-3.63-7.5-9.38S233.7,280.2,236.68,279.63Z"/><path class="cls-9" d="M265.62,264.48c5.44-1,11.69,7.13,13.95,18.25s-.31,20.95-5.75,22c-3.19.6-6.66-2-9.44-6.42a33.34,33.34,0,0,1-3.37-7.43,41.35,41.35,0,0,1-1.15-4.42,40.74,40.74,0,0,1-.66-4.48,32,32,0,0,1,.41-9.29C260.57,268.17,262.67,265,265.62,264.48Z"/><path class="cls-2" d="M263.55,268.89c4.34-.83,9.33,5.68,11.13,14.55s-.25,16.72-4.59,17.55c-1.88.35-3.89-.68-5.71-2.68a33.34,33.34,0,0,1-3.37-7.43,41.35,41.35,0,0,1-1.15-4.42,40.74,40.74,0,0,1-.66-4.48,32,32,0,0,1,.41-9.29C260.51,270.59,261.86,269.21,263.55,268.89Z"/><path class="cls-8" d="M264.46,280.6l-5.39-.57a37.84,37.84,0,0,0,3,13.71l4.48-2.87Z"/><path class="cls-4" d="M264.28,280.66c1.38-.26,3,1.81,3.54,4.62s-.08,5.31-1.46,5.57a2,2,0,0,1-1.81-.84,10.16,10.16,0,0,1-1.07-2.37,11.44,11.44,0,0,1-.37-1.4,12.18,12.18,0,0,1-.21-1.42,10,10,0,0,1,.13-2.95A1.83,1.83,0,0,1,264.28,280.66Z"/><path class="cls-17" d="M241,300.44h-.05Z"/><path class="cls-4" d="M234.35,279.89l.27,0h0l2.33-.25h0a2.45,2.45,0,0,0-.27,0c-3,.57-4.45,5.7-3.29,11.45,1.1,5.44,4.16,9.49,7,9.43l-1.75.2h0l-.07,0c-3,.57-6.33-3.63-7.5-9.38S231.37,280.46,234.35,279.89Z"/><path class="cls-7" d="M240.38,306c.41.09.43,2,.22,2.31-.77.73-.82,1.39-1.57,2.1a26.67,26.67,0,0,0,.7-3.56C239.8,306.39,239.75,305.84,240.38,306Z"/><path class="cls-7" d="M241.25,306.33a18.85,18.85,0,0,1,2.21-1.89L244,304a.54.54,0,0,1,.57-.06c.74.38,2.41,1.62,1.34,4.7-1.44,1-2.17.68-2.15.05,0-.18-1.69.49-1.82-.23a.85.85,0,0,1-.83-.47A2.9,2.9,0,0,1,241.25,306.33Z"/><path class="cls-1" d="M216.92,263.89,272,260.8,289.56,280l-7.81,28.4-25.62-.82L245.47,353l-23.8,6.21-8.92,97.43H151.51L122.93,315C122.8,314.2,216.92,263.89,216.92,263.89Z"/><path class="cls-4" d="M230.73,481.39a1.7,1.7,0,0,0,1.7,1.7h17a1.7,1.7,0,0,0,0-3.39h-17A1.7,1.7,0,0,0,230.73,481.39Z"/><path class="cls-4" d="M222.27,483.09a1.7,1.7,0,0,0,0-3.39H199a1.7,1.7,0,0,0,0,3.39Z"/><path class="cls-4" d="M247,472.93a1.7,1.7,0,0,0,0-3.39H197.27a1.7,1.7,0,1,0,0,3.39Z"/><path class="cls-4" d="M242.66,493.24a1.69,1.69,0,1,0,0-3.38h-42a1.69,1.69,0,0,0,0,3.38Z"/><path class="cls-4" d="M253.66,500H229a1.7,1.7,0,0,0,0,3.39h24.66a1.7,1.7,0,0,0,0-3.39Z"/><path class="cls-4" d="M218.85,503.4a1.7,1.7,0,0,0,0-3.39H202.34a1.7,1.7,0,0,0,0,3.39Z"/><path class="cls-4" d="M235.89,510.17H204a1.69,1.69,0,1,0,0,3.38h31.85a1.69,1.69,0,1,0,0-3.38Z"/></svg>
